# xmcd CD database file
#
# Track frame offsets:
#	150
#	10487
#	25590
#	40485
#	52005
#	68005
#	80025
#	95080
#	111267
#	125537
#	138907
#	150112
#	162060
#	170407
#	178917
#	196160
#	207237
#	227740
#	241745
#	255715
#
# Disc length: 3555 seconds
#
# Revision: 1
# Processed by: cddbd v1.5.1PL2 Copyright (c) Steve Scherf et al.
# Submitted via: CDex 1.51
#
DISCID=0a0de114
DTITLE=Billy Jo Spears - Country Girl
DYEAR=1900
DGENRE=Country
TTITLE0=I'm Going to be a Country Girl Again
TTITLE1=Blanket on the Ground 
TTITLE2=Crystal Chandeliers
TTITLE3=Silver Threads and Golden Needles
TTITLE4=Queen of the Silver Dollar
TTITLE5=Misty Blue 
TTITLE6=It's a Heartache
TTITLE7=Fire and Rain
TTITLE8=Cryin' Time
TTITLE9=Fever
TTITLE10=Teenessee Waltz
TTITLE11=This Ole House
TTITLE12=Rocky Top
TTITLE13=Blue Blue Day
TTITLE14=For the Good Times
TTITLE15=Here You Come Again
TTITLE16=Just the Way You Are 
TTITLE17=Blue Bayou
TTITLE18=I Know I'll Never Love This Way Again
TTITLE19=All I Have to do is Dream
EXTD=
EXTT0=
EXTT1=
EXTT2=
EXTT3=
EXTT4=
EXTT5=
EXTT6=
EXTT7=
EXTT8=
EXTT9=
EXTT10=
EXTT11=
EXTT12=
EXTT13=
EXTT14=
EXTT15=
EXTT16=
EXTT17=
EXTT18=
EXTT19=
PLAYORDER=
